<?xml version="1.0" standalone="no"?>
<!DOCTYPE svg PUBLIC "-//W3C//DTD SVG 20010904//EN"
 "http://www.w3.org/TR/2001/REC-SVG-20010904/DTD/svg10.dtd">
<svg version="1.0" xmlns="http://www.w3.org/2000/svg"
 width="598.000000pt" height="598.000000pt" viewBox="0 0 598.000000 598.000000"
 preserveAspectRatio="xMidYMid meet">
<metadata>
Created by potrace 1.14, written by Peter Selinger 2001-2017
</metadata>
<g transform="translate(0.000000,598.000000) scale(0.100000,-0.100000)"
fill="#000000" stroke="none">
<path d="M3555 5773 c-82 -41 -151 -79 -153 -84 -2 -5 -12 -9 -23 -9 -10 0
-19 -4 -19 -10 0 -5 -5 -10 -11 -10 -6 0 -65 -33 -131 -72 -66 -40 -134 -81
-151 -92 -18 -10 -33 -22 -35 -27 -2 -5 -8 -9 -14 -9 -6 0 -38 -20 -72 -43
-33 -24 -86 -61 -116 -82 -30 -21 -61 -45 -68 -52 -7 -7 -16 -13 -20 -13 -4 0
-24 -16 -44 -35 -21 -18 -38 -32 -38 -29 0 6 -146 -115 -254 -210 -16 -14 -31
-26 -32 -26 -2 0 -64 27 -139 60 -75 33 -138 60 -140 60 -3 0 -27 9 -53 21
-75 33 -100 43 -154 59 -41 12 -34 6 27 -29 62 -35 344 -219 362 -237 10 -10
-13 -38 -102 -130 -62 -65 -111 -122 -109 -126 3 -5 1 -7 -4 -6 -6 2 -31 -22
-57 -52 -25 -30 -54 -64 -64 -75 -9 -11 -33 -40 -52 -65 -18 -24 -44 -56 -56
-70 -13 -13 -23 -28 -23 -32 0 -3 -6 -13 -13 -20 -36 -35 -223 -329 -270 -424
-85 -169 -102 -207 -132 -279 -78 -188 -135 -399 -169 -615 -19 -123 -15 -472
7 -580 27 -137 48 -214 84 -310 38 -102 152 -330 165 -330 4 0 8 -6 8 -13 0
-7 8 -22 19 -33 10 -11 24 -30 30 -43 7 -12 40 -54 73 -94 286 -337 683 -574
1193 -712 55 -15 101 -28 103 -30 4 -3 -253 -155 -262 -155 -2 0 -46 -20 -97
-44 -105 -48 -226 -96 -339 -133 -85 -27 -357 -98 -410 -107 -19 -3 -73 -12
-120 -20 -236 -41 -442 -58 -720 -58 -160 -1 -387 8 -443 17 -12 2 -53 6 -92
10 -87 8 -147 15 -240 31 -82 13 222 -85 417 -135 190 -48 478 -105 638 -125
243 -31 400 -40 655 -40 190 0 359 7 440 19 17 2 59 6 95 10 209 21 677 132
815 195 11 5 56 23 100 41 101 41 285 133 340 170 24 16 45 29 48 29 5 0 94
59 131 87 13 10 36 27 51 37 14 11 38 30 53 43 45 40 74 51 157 57 44 4 94 8
110 10 17 2 57 7 90 11 372 41 929 188 1305 345 69 28 144 58 168 67 24 8 42
17 40 19 -2 2 -53 -8 -113 -22 -61 -14 -126 -27 -145 -30 -19 -3 -42 -7 -51
-10 -9 -2 -34 -7 -55 -10 -22 -2 -46 -6 -54 -9 -8 -2 -37 -7 -65 -10 -27 -3
-61 -8 -75 -10 -14 -3 -52 -8 -85 -11 -33 -3 -73 -8 -90 -9 -131 -14 -242 -19
-445 -18 -229 0 -330 3 -330 9 0 2 20 35 45 73 89 138 195 380 219 501 2 14
12 58 20 98 40 187 43 460 6 672 -22 125 -67 294 -97 370 -4 8 -7 17 -8 20
-19 55 -101 243 -133 305 -52 101 -180 310 -207 340 -13 14 -22 25 -19 25 6 0
-35 61 -46 70 -4 3 -20 23 -36 45 -16 22 -38 51 -49 64 -11 13 -47 56 -79 95
-93 111 -379 392 -506 495 -150 123 -390 301 -405 301 -3 0 -15 8 -26 18 -10
11 -32 25 -47 33 -15 8 -48 28 -74 46 -26 18 -50 33 -52 33 -9 0 -176 102
-176 107 0 8 100 132 201 248 149 172 371 387 532 517 22 18 48 40 57 48 8 8
31 26 50 40 19 13 41 31 49 38 8 8 50 39 93 69 43 30 78 57 78 59 0 9 -22 0
-165 -73z m-967 -1114 c92 -72 302 -273 421 -404 76 -83 208 -246 266 -330 27
-38 52 -72 55 -75 3 -3 10 -14 17 -25 7 -11 41 -68 77 -126 242 -398 372 -811
380 -1215 3 -163 -16 -343 -51 -474 -8 -30 -18 -68 -22 -85 -21 -83 -109 -287
-164 -380 -46 -79 -104 -162 -158 -228 -8 -10 -142 44 -283 114 -538 267 -910
703 -1046 1225 -16 61 -31 128 -34 150 -3 21 -9 66 -13 99 -4 33 -8 148 -7
255 1 257 29 426 115 700 17 52 34 104 39 115 5 11 25 61 45 110 42 103 167
347 221 432 21 32 52 82 71 111 18 28 36 52 39 52 3 0 18 -9 32 -21z"/>
<path d="M2790 3569 c-67 -10 -184 -53 -247 -91 -292 -175 -409 -550 -270
-863 12 -27 25 -51 30 -53 4 -2 7 -8 7 -12 0 -20 64 -101 119 -153 57 -52 168
-127 188 -127 6 0 23 -7 39 -15 57 -28 165 -44 269 -41 300 10 553 214 633
510 22 85 21 261 -3 346 -27 98 -90 211 -156 284 -62 68 -205 169 -226 161 -7
-2 -13 -1 -13 4 0 4 -33 18 -73 30 -78 23 -217 32 -297 20z"/>
</g>
</svg>
