<svg width="823" height="452" xmlns="http://www.w3.org/2000/svg" xmlns:xlink="http://www.w3.org/1999/xlink" overflow="hidden"><defs><clipPath id="clip0"><rect x="238" y="128" width="823" height="452"/></clipPath></defs><g clip-path="url(#clip0)" transform="translate(-238 -128)"><path d="M243.912 573.753C345.638 501.371 328.346 375.661 336.374 347.425 344.401 319.188 340.036 486.816 344.682 501.451 349.328 516.085 341.852 444.363 364.249 435.233 386.645 426.102 375.363 484.453 380.95 482.997 386.537 481.541 380.261 433.932 397.771 426.5 415.281 419.067 420.19 439.555 404.931 448.029 389.672 456.503 394.839 479.644 399.629 478.633 416.597 475.052 419.178 447.182 425.094 426.866 431.011 406.551 420.438 465.475 423.493 471.783 444.706 355.26 436.671 469.856 446.814 462.949 456.956 456.042 489.378 463.085 484.348 430.342 479.318 397.598 462 411.98 456.515 422.714 451.031 433.449 451.821 459.276 476.922 453.528 502.024 447.78 476.681 314.173 481.129 311.928 485.577 309.682 488.477 433.648 496.721 448.252 504.964 462.855 516.484 391.405 506.949 402.942 497.414 414.479 519.856 417.673 522.444 423.736 525.032 429.798 515.392 440.006 522.48 439.313 529.567 438.621 558.865 439.441 564.968 419.581 571.07 399.721 552.997 390.132 543.783 394.195 534.568 398.258 521.97 413.644 536.724 428.308 551.477 442.973 567.613 425.928 571.111 397.261 574.61 368.593 576.946 414.993 581.745 420.5 580.696 330.31 594.03 427.031 596.529 419.616 599.027 412.202 593.868 377.601 596.736 376.012 599.605 374.423 610.492 430.631 613.739 410.083 616.985 389.536 644.583 394.34 642.766 381.771 640.948 369.203 614.624 362.213 614.828 378.274 615.032 394.335 635.88 418.904 639.727 408.4 651.224 377.004 655.968 436.335 660.969 426.955 665.97 417.575 670.333 373.708 669.732 352.123 669.13 330.538 651.333 346.229 658.588 355.702 665.844 365.175 702.313 340.374 690.259 338.035 678.204 335.697 684.777 351.61 689.396 349.366 672.911 457.594 709.201 322.101 711.288 342.481 713.376 362.86 699.906 472.204 701.921 471.644 703.936 471.084 700.242 350.804 723.38 339.123 746.519 327.441 722.264 389.62 741.412 379.631 760.56 369.642 784.571 310.799 812.876 311.204 841.181 311.609 846.542 340.052 827.889 354.488 809.235 368.924 793.715 360.192 786.591 348.252 779.467 336.312 785.471 320.576 800.655 307.567 815.839 294.557 861.88 246.069 890.479 275.632 922.637 308.875 884.605 352.268 853.112 334.433 821.618 316.598 796.051 275.112 978.806 200.676 1018.44 184.532 928.386 391.866 898.214 426.339 868.042 460.812 773.53 431.813 797.774 407.513 822.018 383.213 918.797 337.398 1054.2 274.447" stroke="#FFFFFF" stroke-width="11" stroke-linecap="round" stroke-linejoin="round" stroke-miterlimit="10" fill="none" fill-rule="evenodd"/><path d="M834.958 461.175C700.899 522.005 559.275 498.706 518.632 409.135 477.989 319.565 553.718 197.641 687.777 136.811 564.835 222.141 527.843 350.437 605.155 423.369 654.647 470.058 742.021 484.432 834.958 461.175Z" stroke="#FFFFFF" stroke-width="4" stroke-linecap="round" stroke-miterlimit="8" fill="none" fill-rule="evenodd"/><path d="M550.189 184.483C689.048 233.375 775.133 348.221 742.466 440.998 709.799 533.775 570.751 569.351 431.892 520.459 579.686 543.974 695.188 476.985 689.874 370.835 686.472 302.881 633.362 232.028 550.189 184.483Z" stroke="#FFFFFF" stroke-width="4" stroke-linecap="round" stroke-miterlimit="8" fill="none" fill-rule="evenodd"/><path d="M578 347C578 320.49 599.49 299 626 299 652.51 299 674 320.49 674 347 674 373.51 652.51 395 626 395 599.49 395 578 373.51 578 347Z" stroke="#FFFFFF" stroke-width="4" stroke-linecap="round" stroke-linejoin="round" stroke-miterlimit="10" fill="none" fill-rule="evenodd"/><path d="M427.5 374.5 427.5 145.5 624.5 145.5" stroke="#FFFFFF" stroke-width="13.3333" stroke-miterlimit="8" fill="none" fill-rule="evenodd"/><path d="M830.5 487.5 830.5 548.5 650.5 548.5" stroke="#FFFFFF" stroke-width="13.3333" stroke-miterlimit="8" fill="none" fill-rule="evenodd"/><path d="M0 107 0 0 112 0" stroke="#FFFFFF" stroke-width="13.3333" stroke-miterlimit="8" fill="none" fill-rule="evenodd" transform="matrix(-1 0 0 1 830.5 145.5)"/><path d="M36 0 36 15 0 15" stroke="#FFFFFF" stroke-width="13.3333" stroke-miterlimit="8" fill="none" fill-rule="evenodd" transform="matrix(-1 0 0 1 463.5 533.5)"/></g></svg>